<svg id="Ebene_1" data-name="Ebene 1" xmlns="http://www.w3.org/2000/svg" xmlns:xlink="http://www.w3.org/1999/xlink" viewBox="0 0 1920 1080"><defs><style>.cls-1{opacity:0.95;}.cls-2{fill:#1a1a1a;}.cls-3{opacity:0.85;}.cls-4{fill:url(#Unbenannter_Verlauf_3);}.cls-5{fill:url(#Unbenannter_Verlauf_3-2);}.cls-6{fill:url(#Unbenannter_Verlauf_3-3);}.cls-7{fill:url(#Unbenannter_Verlauf);}.cls-8{fill:url(#Unbenannter_Verlauf-2);}.cls-9{fill:url(#Unbenannter_Verlauf-3);}</style><linearGradient id="Unbenannter_Verlauf_3" x1="569.94" y1="613.36" x2="995.39" y2="623.03" gradientTransform="translate(675.3 -186.11)" gradientUnits="userSpaceOnUse"><stop offset="0" stop-color="#fff"/><stop offset="1"/></linearGradient><linearGradient id="Unbenannter_Verlauf_3-2" x1="596.99" y1="627.71" x2="900.47" y2="634.61" gradientTransform="translate(1767.78 -473.84) rotate(90)" xlink:href="#Unbenannter_Verlauf_3"/><linearGradient id="Unbenannter_Verlauf_3-3" x1="503.16" y1="602.22" x2="864.17" y2="610.42" gradientTransform="translate(-171.28 -186.11)" xlink:href="#Unbenannter_Verlauf_3"/><linearGradient id="Unbenannter_Verlauf" x1="246.89" y1="393.61" x2="625.72" y2="402.22" gradientTransform="translate(211.78 222.04)" xlink:href="#Unbenannter_Verlauf_3"/><linearGradient id="Unbenannter_Verlauf-2" x1="271.46" y1="408.47" x2="539.65" y2="414.57" gradientTransform="translate(1151.84 110.49) rotate(90)" xlink:href="#Unbenannter_Verlauf_3"/><linearGradient id="Unbenannter_Verlauf-3" x1="102.94" y1="381.84" x2="474.19" y2="390.27" gradientTransform="translate(211.78 222.04)" xlink:href="#Unbenannter_Verlauf_3"/></defs><title>Zeichenfläche 1</title><g class="cls-1"><path class="cls-2" d="M556.43,575.91q-17.76,0-27.25-10.59t-9.67-31.07V522.73q0-21.25,9.28-33.35t25.88-12.08q16.7,0,25,10.63t8.44,33.13v10.2H535v2.2q0,15.28,5.76,22.23t16.57,6.95a26.84,26.84,0,0,0,12.08-2.6,29.88,29.88,0,0,0,9.8-8.21l8.09,9.84Q577.17,575.91,556.43,575.91Zm-1.76-85.26q-9.67,0-14.33,6.64t-5.27,20.61h37.44v-2.11q-.62-13.53-4.88-19.33T554.67,490.65Z"/><path class="cls-2" d="M639.75,562.64q7.72,0,12.39-4.79t5.1-13.67h14.68q-.54,13.71-9.72,22.72a30.83,30.83,0,0,1-22.45,9q-17.67,0-26.94-11.12t-9.27-33.09V521.24q0-21.53,9.22-32.74t26.9-11.2q14.58,0,23.16,9.22t9.1,25.23H657.24q-.53-10.54-5.06-15.82t-12.52-5.28q-10.38,0-15.38,6.82t-5.19,22.36V532q0,16.8,5,23.73T639.75,562.64Z"/><path class="cls-2" d="M686.59,522.21q0-20.75,10.07-32.83t26.58-12.08q16.53,0,26.59,11.77t10.33,32.08v10q0,20.66-10,32.7t-26.72,12q-16.53,0-26.5-11.69t-10.33-31.64Zm15.56,9q0,14.69,5.76,23.07t15.51,8.4q20.57,0,21.18-29.71V522.21q0-14.6-5.8-23.07t-15.56-8.49q-9.57,0-15.33,8.49t-5.76,23Z"/><path class="cls-2" d="M795,481.6v.18a2.66,2.66,0,0,0,4.39,1.9q7.73-6.39,18.8-6.38,13.76,0,20.35,10.32a2.63,2.63,0,0,0,4.25.21q8.61-10.53,22.59-10.53,26.28,0,26.9,32.78V571.5a2.65,2.65,0,0,1-2.65,2.65H879.44a2.65,2.65,0,0,1-2.65-2.65V511.57q0-10.36-3.69-15.42c-2.46-3.37-6.63-5.06-12.48-5.06a14,14,0,0,0-11.43,5.45,24.81,24.81,0,0,0-5.09,13.75c0,.09,0,.19,0,.28V571.5a2.65,2.65,0,0,1-2.65,2.65H831.1a2.65,2.65,0,0,1-2.65-2.65V510.87q-.27-19.77-16.09-19.78-11.52,0-16.39,11.27a2.58,2.58,0,0,0-.22,1.06V571.5a2.65,2.65,0,0,1-2.65,2.65H782.93a2.65,2.65,0,0,1-2.65-2.65V481.7a2.65,2.65,0,0,1,2.65-2.65h9.4A2.66,2.66,0,0,1,795,481.6Z"/><path class="cls-2" d="M930.31,479.05l.36,8.79q8.7-10.54,22.93-10.54,15.92,0,22.24,13.79,9-13.79,25-13.79,26.28,0,26.9,32.78v64.07h-15.47V511.57q0-10.36-3.69-15.42c-2.46-3.37-6.63-5.06-12.48-5.06a14,14,0,0,0-11.43,5.45,24.89,24.89,0,0,0-5.1,13.89v63.72H963.89V510.87q-.27-19.77-16.09-19.78-11.77,0-16.61,11.78v71.28H915.72v-95.1Z"/><path class="cls-2" d="M1085.09,575.91q-17.76,0-27.25-10.59t-9.67-31.07V522.73q0-21.25,9.28-33.35t25.88-12.08q16.7,0,25,10.63t8.44,33.13v10.2h-53.09v2.2q0,15.28,5.76,22.23t16.57,6.95a26.81,26.81,0,0,0,12.08-2.6,29.88,29.88,0,0,0,9.8-8.21l8.09,9.84Q1105.83,575.91,1085.09,575.91Zm-1.76-85.26q-9.67,0-14.33,6.64t-5.27,20.61h37.44v-2.11q-.62-13.53-4.88-19.33T1083.33,490.65Z"/><path class="cls-2" d="M1174.65,493.64a37.87,37.87,0,0,0-7-.61q-12,0-16.7,13.09v68h-15.56v-95.1h15.12l.26,9.67q6.24-11.43,17.67-11.42a13.69,13.69,0,0,1,6.15,1.23Z"/><path class="cls-2" d="M1221.5,562.64q7.73,0,12.39-4.79t5.1-13.67h14.67q-.53,13.71-9.71,22.72a30.83,30.83,0,0,1-22.45,9q-17.67,0-26.94-11.12t-9.28-33.09V521.24q0-21.53,9.23-32.74t26.9-11.2q14.58,0,23.16,9.22t9.09,25.23H1239q-.54-10.54-5.06-15.82t-12.52-5.28q-10.38,0-15.38,6.82t-5.19,22.36V532q0,16.8,5,23.73T1221.5,562.64Z"/><path class="cls-2" d="M1289.61,453.83a9.92,9.92,0,0,1-2.2,6.59q-2.19,2.64-6.68,2.64c-2.93,0-5.12-.88-6.59-2.64a10,10,0,0,1-2.2-6.59,10.33,10.33,0,0,1,2.2-6.68c1.47-1.82,3.66-2.73,6.59-2.73s5.15.93,6.64,2.77A10.25,10.25,0,0,1,1289.61,453.83Zm-1.23,120.32h-15.56v-95.1h15.56Z"/><path class="cls-2" d="M1309.56,522.21q0-20.75,10.07-32.83t26.58-12.08q16.53,0,26.59,11.77t10.33,32.08v10q0,20.66-10,32.7t-26.72,12q-16.53,0-26.5-11.69t-10.33-31.64Zm15.56,9q0,14.69,5.76,23.07t15.51,8.4q20.56,0,21.18-29.71V522.21q0-14.6-5.8-23.07t-15.56-8.49q-9.57,0-15.33,8.49t-5.76,23Z"/></g><g class="cls-3"><rect class="cls-4" x="1337.63" y="404.56" width="18.37" height="50" transform="translate(2693.63 859.11) rotate(180)"/><rect class="cls-5" x="1127.11" y="201.4" width="12.82" height="419.13" transform="translate(1544.49 -722.56) rotate(90)"/><rect class="cls-6" x="915.82" y="404.56" width="15.41" height="50" transform="translate(1847.06 859.11) rotate(180)"/></g><g class="cls-3"><rect class="cls-7" x="541" y="592.71" width="16.23" height="50"/><rect class="cls-8" x="731.18" y="451.12" width="12.82" height="370.36" transform="translate(101.29 1373.89) rotate(-90)"/><rect class="cls-9" x="915.21" y="592.71" width="15.88" height="50"/></g></svg>